<svg width="41" height="40" viewBox="0 0 41 40" fill="none" xmlns="http://www.w3.org/2000/svg">
<g clip-path="url(#clip0_1_259)">
<rect x="0.971191" width="40" height="40" rx="20" fill="#2893B7"/>
<path fill-rule="evenodd" clip-rule="evenodd" d="M32.4503 20L20.9711 8.66669L9.49194 20L20.9711 31.3334L32.4503 20ZM30.6378 19.9999L20.9711 10.456L11.3044 19.9999L20.9711 29.5438L30.6378 19.9999Z" fill="white"/>
<path fill-rule="evenodd" clip-rule="evenodd" d="M20.9712 19.9999L11.3045 10.4561L1.63782 19.9999L11.3045 29.5438L20.9712 19.9999ZM19.1586 19.9998L11.3045 12.2454L3.45032 19.9998L11.3045 27.7542L19.1586 19.9998Z" fill="white"/>
<path fill-rule="evenodd" clip-rule="evenodd" d="M40.3045 19.9999L30.6379 10.4561L20.9712 19.9999L30.6379 29.5438L40.3045 19.9999ZM38.492 19.9998L30.6379 12.2454L22.7837 19.9998L30.6379 27.7542L38.492 19.9998Z" fill="white"/>
</g>
<defs>
<clipPath id="clip0_1_259">
<rect width="40" height="40" fill="white" transform="translate(0.971191)"/>
</clipPath>
</defs>
</svg>
